<svg width="457" height="114" viewBox="0 0 457 114" fill="none" xmlns="http://www.w3.org/2000/svg">
<rect x="248" y="52" width="209" height="62" rx="12" fill="#37931F"/>
<circle cx="416.5" cy="82.5" r="16.5" stroke="#37931F" stroke-width="6"/>
<path d="M416.5 99C407.387 99 400 91.6127 400 82.5C400 73.3873 407.387 66 416.5 66C425.613 66 433 73.3873 433 82.5C433 85.3169 432.028 90.4008 428 94.3633" stroke="white" stroke-width="6" stroke-linecap="round"/>
<path d="M285.236 87.7614V85.2472L292.642 73.5455H294.739V77.125H293.46L288.474 85.0256V85.1619H298.812V87.7614H285.236ZM293.562 91V86.9943L293.597 85.8693V73.5455H296.58V91H293.562ZM307.987 91.3324C306.584 91.3324 305.379 90.9773 304.374 90.267C303.374 89.5511 302.604 88.5199 302.064 87.1733C301.53 85.821 301.263 84.1932 301.263 82.2898C301.268 80.3864 301.538 78.767 302.072 77.4318C302.612 76.0909 303.382 75.0682 304.382 74.3636C305.388 73.6591 306.589 73.3068 307.987 73.3068C309.385 73.3068 310.587 73.6591 311.592 74.3636C312.598 75.0682 313.368 76.0909 313.902 77.4318C314.442 78.7727 314.712 80.392 314.712 82.2898C314.712 84.1989 314.442 85.8295 313.902 87.1818C313.368 88.5284 312.598 89.5568 311.592 90.267C310.592 90.9773 309.391 91.3324 307.987 91.3324ZM307.987 88.6648C309.078 88.6648 309.939 88.1278 310.57 87.054C311.206 85.9744 311.524 84.3864 311.524 82.2898C311.524 80.9034 311.379 79.7386 311.089 78.7955C310.8 77.8523 310.391 77.142 309.862 76.6648C309.334 76.1818 308.709 75.9403 307.987 75.9403C306.902 75.9403 306.044 76.4801 305.413 77.5597C304.783 78.6335 304.464 80.2102 304.459 82.2898C304.453 83.6818 304.592 84.8523 304.876 85.8011C305.166 86.75 305.575 87.4659 306.104 87.9489C306.632 88.4261 307.26 88.6648 307.987 88.6648ZM326.505 86.8239L331.746 77.9091H334.917V91H331.934V82.0767L326.71 91H323.531V77.9091H326.505V86.8239ZM337.361 87.4119H340.42C340.449 87.9006 340.668 88.2784 341.077 88.5455C341.486 88.8125 342.017 88.946 342.67 88.946C343.335 88.946 343.895 88.8011 344.349 88.5114C344.81 88.2159 345.04 87.7699 345.04 87.1733C345.04 86.821 344.952 86.5114 344.776 86.2443C344.599 85.9716 344.352 85.7614 344.034 85.6136C343.716 85.4659 343.341 85.392 342.909 85.392H340.906V83.2017H342.909C343.551 83.2017 344.037 83.054 344.366 82.7585C344.702 82.4631 344.869 82.0909 344.869 81.642C344.869 81.1591 344.693 80.767 344.341 80.4659C343.994 80.1648 343.514 80.0142 342.901 80.0142C342.287 80.0142 341.776 80.1534 341.366 80.4318C340.963 80.7102 340.753 81.0682 340.736 81.5057H337.693C337.705 80.7443 337.932 80.0824 338.375 79.5199C338.824 78.9574 339.426 78.5199 340.182 78.2074C340.943 77.8949 341.801 77.7386 342.756 77.7386C343.778 77.7386 344.662 77.892 345.406 78.1989C346.151 78.5057 346.724 78.9347 347.128 79.4858C347.531 80.0312 347.733 80.6733 347.733 81.4119C347.733 82.1222 347.511 82.7102 347.068 83.1761C346.625 83.6364 346.028 83.9659 345.278 84.1648V84.3011C345.795 84.3295 346.261 84.4773 346.676 84.7443C347.091 85.0057 347.42 85.3608 347.665 85.8097C347.909 86.2585 348.031 86.7784 348.031 87.3693C348.031 88.1705 347.801 88.8636 347.341 89.4489C346.881 90.0284 346.247 90.4744 345.44 90.7869C344.639 91.0994 343.722 91.2557 342.688 91.2557C341.682 91.2557 340.781 91.1051 339.986 90.804C339.196 90.4972 338.568 90.0568 338.102 89.483C337.636 88.9091 337.389 88.2187 337.361 87.4119ZM356.064 87.7614V85.2472L363.47 73.5455H365.567V77.125H364.288L359.303 85.0256V85.1619H369.641V87.7614H356.064ZM364.391 91V86.9943L364.425 85.8693V73.5455H367.408V91H364.391ZM378.815 91.3324C377.412 91.3324 376.207 90.9773 375.202 90.267C374.202 89.5511 373.432 88.5199 372.892 87.1733C372.358 85.821 372.091 84.1932 372.091 82.2898C372.097 80.3864 372.366 78.767 372.901 77.4318C373.44 76.0909 374.21 75.0682 375.21 74.3636C376.216 73.6591 377.418 73.3068 378.815 73.3068C380.213 73.3068 381.415 73.6591 382.42 74.3636C383.426 75.0682 384.196 76.0909 384.73 77.4318C385.27 78.7727 385.54 80.392 385.54 82.2898C385.54 84.1989 385.27 85.8295 384.73 87.1818C384.196 88.5284 383.426 89.5568 382.42 90.267C381.42 90.9773 380.219 91.3324 378.815 91.3324ZM378.815 88.6648C379.906 88.6648 380.767 88.1278 381.398 87.054C382.034 85.9744 382.352 84.3864 382.352 82.2898C382.352 80.9034 382.207 79.7386 381.918 78.7955C381.628 77.8523 381.219 77.142 380.69 76.6648C380.162 76.1818 379.537 75.9403 378.815 75.9403C377.73 75.9403 376.872 76.4801 376.241 77.5597C375.611 78.6335 375.293 80.2102 375.287 82.2898C375.281 83.6818 375.42 84.8523 375.705 85.8011C375.994 86.75 376.403 87.4659 376.932 87.9489C377.46 88.4261 378.088 88.6648 378.815 88.6648Z" fill="white"/>
<g filter="url(#filter0_d_400_6)">
<rect x="11" y="11" width="268" height="63" rx="12" fill="white" shape-rendering="crispEdges"/>
<rect x="10.5" y="10.5" width="269" height="64" rx="12.5" stroke="black" stroke-opacity="0.1" style="mix-blend-mode:darken" shape-rendering="crispEdges"/>
</g>
<circle cx="38" cy="42" r="10" fill="#AAAAAA"/>
<path d="M42.6758 37.7143L38.7562 41.6338C38.1936 42.1964 37.8776 42.9595 37.8776 43.7552V46.5531" stroke="white" stroke-width="2" stroke-linecap="round"/>
<rect x="58" y="23" width="30" height="37" rx="6" fill="black"/>
<path d="M69.3026 35.3636V47H66.8423V37.6989H66.7741L64.1094 39.3693V37.1875L66.9901 35.3636H69.3026ZM76.4091 47.1591C75.5341 47.1591 74.7557 47.017 74.0739 46.733C73.3958 46.4451 72.8636 46.053 72.4773 45.5568C72.0909 45.0606 71.8977 44.4981 71.8977 43.8693C71.8977 43.3845 72.0076 42.9394 72.2273 42.5341C72.4508 42.125 72.7538 41.786 73.1364 41.517C73.5189 41.2443 73.947 41.0701 74.4205 40.9943V40.9148C73.7992 40.7898 73.2955 40.4886 72.9091 40.0114C72.5227 39.5303 72.3295 38.9716 72.3295 38.3352C72.3295 37.733 72.5057 37.197 72.858 36.7273C73.2102 36.2538 73.6932 35.8826 74.3068 35.6136C74.9242 35.3409 75.625 35.2045 76.4091 35.2045C77.1932 35.2045 77.892 35.3409 78.5057 35.6136C79.1231 35.8864 79.608 36.2595 79.9602 36.733C80.3125 37.2027 80.4905 37.7367 80.4943 38.3352C80.4905 38.9754 80.2936 39.5341 79.9034 40.0114C79.5133 40.4886 79.0133 40.7898 78.4034 40.9148V40.9943C78.8693 41.0701 79.2917 41.2443 79.6705 41.517C80.053 41.786 80.3561 42.125 80.5795 42.5341C80.8068 42.9394 80.9223 43.3845 80.9261 43.8693C80.9223 44.4981 80.7273 45.0606 80.3409 45.5568C79.9545 46.053 79.4205 46.4451 78.7386 46.733C78.0606 47.017 77.2841 47.1591 76.4091 47.1591ZM76.4091 45.3523C76.7992 45.3523 77.1402 45.2822 77.4318 45.142C77.7235 44.9981 77.9508 44.8011 78.1136 44.5511C78.2803 44.2973 78.3636 44.0057 78.3636 43.6761C78.3636 43.339 78.2784 43.0417 78.108 42.7841C77.9375 42.5227 77.7064 42.3182 77.4148 42.1705C77.1231 42.0189 76.7879 41.9432 76.4091 41.9432C76.0341 41.9432 75.6989 42.0189 75.4034 42.1705C75.108 42.3182 74.875 42.5227 74.7045 42.7841C74.5379 43.0417 74.4545 43.339 74.4545 43.6761C74.4545 44.0057 74.536 44.2973 74.6989 44.5511C74.8617 44.8011 75.0909 44.9981 75.3864 45.142C75.6818 45.2822 76.0227 45.3523 76.4091 45.3523ZM76.4091 40.1534C76.7348 40.1534 77.0246 40.0871 77.2784 39.9545C77.5322 39.822 77.7311 39.6383 77.875 39.4034C78.0189 39.1686 78.0909 38.8977 78.0909 38.5909C78.0909 38.2879 78.0189 38.0227 77.875 37.7955C77.7311 37.5644 77.5341 37.3845 77.2841 37.2557C77.0341 37.1231 76.7424 37.0568 76.4091 37.0568C76.0795 37.0568 75.7879 37.1231 75.5341 37.2557C75.2803 37.3845 75.0814 37.5644 74.9375 37.7955C74.7973 38.0227 74.7273 38.2879 74.7273 38.5909C74.7273 38.8977 74.7992 39.1686 74.9432 39.4034C75.0871 39.6383 75.286 39.822 75.5398 39.9545C75.7936 40.0871 76.0833 40.1534 76.4091 40.1534Z" fill="white"/>
<path d="M94.9902 45.3274L96.4675 41.5455H97.6181L95.4909 47H94.486L92.4086 41.5455H93.5556L94.9902 45.3274ZM93.2111 41.5455V47H91.7658V41.5455H93.2111ZM96.8439 47V41.5455H98.2715V47H96.8439Z" fill="black"/>
<rect x="102" y="23" width="30" height="37" rx="6" fill="black"/>
<path d="M106.923 45.2045V43.267L111.781 35.6136H113.452V38.2955H112.463L109.401 43.142V43.233H116.304V45.2045H106.923ZM112.509 47.25V44.6136L112.554 43.7557V35.6136H114.861V47.25H112.509ZM117.767 45.2045V43.267L122.625 35.6136H124.295V38.2955H123.307L120.244 43.142V43.233H127.148V45.2045H117.767ZM123.352 47.25V44.6136L123.398 43.7557V35.6136H125.705V47.25H123.352Z" fill="white"/>
<path d="M138.134 47.1065C137.575 47.1065 137.094 46.9882 136.692 46.7514C136.292 46.5123 135.984 46.1809 135.769 45.7571C135.555 45.3333 135.449 44.8456 135.449 44.294C135.449 43.7353 135.557 43.2453 135.772 42.8239C135.99 42.4001 136.299 42.0698 136.699 41.8331C137.099 41.594 137.575 41.4744 138.127 41.4744C138.602 41.4744 139.019 41.5608 139.377 41.7337C139.734 41.9065 140.017 42.1491 140.225 42.4616C140.434 42.7741 140.548 43.1411 140.57 43.5625H139.142C139.102 43.2902 138.995 43.0713 138.823 42.9055C138.652 42.7375 138.428 42.6534 138.151 42.6534C137.917 42.6534 137.712 42.7173 137.537 42.8452C137.364 42.9706 137.229 43.1541 137.132 43.3956C137.035 43.6371 136.987 43.9295 136.987 44.2727C136.987 44.6207 137.034 44.9167 137.129 45.1605C137.226 45.4044 137.362 45.5902 137.537 45.718C137.712 45.8459 137.917 45.9098 138.151 45.9098C138.324 45.9098 138.479 45.8743 138.617 45.8033C138.756 45.7322 138.871 45.6293 138.961 45.4943C139.053 45.357 139.114 45.1925 139.142 45.0007H140.57C140.546 45.4174 140.432 45.7843 140.229 46.1016C140.028 46.4164 139.749 46.6626 139.394 46.8402C139.039 47.0178 138.619 47.1065 138.134 47.1065Z" fill="black"/>
<rect x="155" y="33" width="105" height="20" rx="10" fill="#37931F"/>
<path d="M171.455 40.1818L172.736 42.3125H172.781L174.068 40.1818H175.27L173.477 43.0909L175.298 46H174.077L172.781 43.8835H172.736L171.44 46H170.224L172.062 43.0909L170.247 40.1818H171.455ZM177.729 46.0852C177.303 46.0852 176.933 45.9915 176.621 45.804C176.308 45.6165 176.066 45.3542 175.893 45.017C175.723 44.6799 175.638 44.286 175.638 43.8352C175.638 43.3845 175.723 42.9896 175.893 42.6506C176.066 42.3116 176.308 42.0483 176.621 41.8608C176.933 41.6733 177.303 41.5795 177.729 41.5795C178.155 41.5795 178.524 41.6733 178.837 41.8608C179.149 42.0483 179.391 42.3116 179.561 42.6506C179.733 42.9896 179.82 43.3845 179.82 43.8352C179.82 44.286 179.733 44.6799 179.561 45.017C179.391 45.3542 179.149 45.6165 178.837 45.804C178.524 45.9915 178.155 46.0852 177.729 46.0852ZM177.734 45.2614C177.965 45.2614 178.159 45.1979 178.314 45.071C178.469 44.9422 178.585 44.7699 178.661 44.554C178.738 44.3381 178.777 44.0975 178.777 43.8324C178.777 43.5653 178.738 43.3239 178.661 43.108C178.585 42.8902 178.469 42.7169 178.314 42.5881C178.159 42.4593 177.965 42.3949 177.734 42.3949C177.498 42.3949 177.301 42.4593 177.143 42.5881C176.988 42.7169 176.872 42.8902 176.794 43.108C176.718 43.3239 176.68 43.5653 176.68 43.8324C176.68 44.0975 176.718 44.3381 176.794 44.554C176.872 44.7699 176.988 44.9422 177.143 45.071C177.301 45.1979 177.498 45.2614 177.734 45.2614ZM180.692 47.6364V41.6364H181.704V42.358H181.763C181.817 42.2519 181.891 42.1392 181.988 42.0199C182.085 41.8987 182.215 41.7955 182.38 41.7102C182.545 41.6231 182.755 41.5795 183.011 41.5795C183.348 41.5795 183.652 41.6657 183.923 41.8381C184.195 42.0085 184.411 42.2614 184.57 42.5966C184.731 42.9299 184.812 43.339 184.812 43.8239C184.812 44.303 184.733 44.7102 184.576 45.0455C184.419 45.3807 184.205 45.6364 183.934 45.8125C183.663 45.9886 183.356 46.0767 183.013 46.0767C182.763 46.0767 182.556 46.035 182.391 45.9517C182.227 45.8684 182.094 45.768 181.994 45.6506C181.895 45.5312 181.818 45.4186 181.763 45.3125H181.721V47.6364H180.692ZM181.701 43.8182C181.701 44.1004 181.741 44.3475 181.82 44.5597C181.902 44.7718 182.018 44.9375 182.17 45.0568C182.323 45.1742 182.509 45.233 182.727 45.233C182.954 45.233 183.144 45.1723 183.298 45.0511C183.451 44.928 183.567 44.7604 183.644 44.5483C183.724 44.3343 183.763 44.0909 183.763 43.8182C183.763 43.5473 183.725 43.3068 183.647 43.0966C183.569 42.8864 183.454 42.7216 183.3 42.6023C183.147 42.483 182.956 42.4233 182.727 42.4233C182.507 42.4233 182.32 42.4811 182.167 42.5966C182.013 42.7121 181.897 42.8741 181.817 43.0824C181.74 43.2907 181.701 43.536 181.701 43.8182ZM187.596 46.0852C187.17 46.0852 186.8 45.9915 186.488 45.804C186.175 45.6165 185.933 45.3542 185.761 45.017C185.59 44.6799 185.505 44.286 185.505 43.8352C185.505 43.3845 185.59 42.9896 185.761 42.6506C185.933 42.3116 186.175 42.0483 186.488 41.8608C186.8 41.6733 187.17 41.5795 187.596 41.5795C188.022 41.5795 188.391 41.6733 188.704 41.8608C189.016 42.0483 189.258 42.3116 189.428 42.6506C189.601 42.9896 189.687 43.3845 189.687 43.8352C189.687 44.286 189.601 44.6799 189.428 45.017C189.258 45.3542 189.016 45.6165 188.704 45.804C188.391 45.9915 188.022 46.0852 187.596 46.0852ZM187.602 45.2614C187.833 45.2614 188.026 45.1979 188.181 45.071C188.336 44.9422 188.452 44.7699 188.528 44.554C188.605 44.3381 188.644 44.0975 188.644 43.8324C188.644 43.5653 188.605 43.3239 188.528 43.108C188.452 42.8902 188.336 42.7169 188.181 42.5881C188.026 42.4593 187.833 42.3949 187.602 42.3949C187.365 42.3949 187.168 42.4593 187.011 42.5881C186.855 42.7169 186.739 42.8902 186.661 43.108C186.585 43.3239 186.548 43.5653 186.548 43.8324C186.548 44.0975 186.585 44.3381 186.661 44.554C186.739 44.7699 186.855 44.9422 187.011 45.071C187.168 45.1979 187.365 45.2614 187.602 45.2614ZM190.56 41.6364H191.551V45.1534H192.923V41.6364H193.915V45.1534H195.287V41.6364H196.278V46H190.56V41.6364ZM199.249 46.0852C198.812 46.0852 198.434 45.9943 198.116 45.8125C197.799 45.6288 197.556 45.3693 197.386 45.0341C197.215 44.697 197.13 44.3002 197.13 43.8438C197.13 43.3949 197.215 43.0009 197.386 42.6619C197.558 42.321 197.799 42.0559 198.107 41.8665C198.416 41.6752 198.779 41.5795 199.195 41.5795C199.464 41.5795 199.718 41.6231 199.957 41.7102C200.197 41.7955 200.409 41.928 200.593 42.108C200.779 42.2879 200.924 42.517 201.031 42.7955C201.137 43.072 201.19 43.4015 201.19 43.7841V44.0994H197.613V43.4062H200.204C200.202 43.2093 200.159 43.0341 200.076 42.8807C199.993 42.7254 199.876 42.6032 199.727 42.5142C199.579 42.4252 199.406 42.3807 199.21 42.3807C198.999 42.3807 198.815 42.4318 198.656 42.5341C198.496 42.6345 198.372 42.767 198.283 42.9318C198.196 43.0947 198.152 43.2737 198.15 43.4688V44.0739C198.15 44.3277 198.196 44.5455 198.289 44.7273C198.382 44.9072 198.512 45.0455 198.678 45.142C198.845 45.2367 199.04 45.2841 199.263 45.2841C199.413 45.2841 199.549 45.2633 199.67 45.2216C199.791 45.178 199.896 45.1146 199.985 45.0312C200.074 44.9479 200.141 44.8447 200.187 44.7216L201.147 44.8295C201.086 45.0833 200.971 45.3049 200.8 45.4943C200.632 45.6818 200.416 45.8277 200.153 45.9318C199.889 46.0341 199.588 46.0852 199.249 46.0852ZM203.991 46.0852C203.554 46.0852 203.176 45.9943 202.858 45.8125C202.542 45.6288 202.298 45.3693 202.128 45.0341C201.957 44.697 201.872 44.3002 201.872 43.8438C201.872 43.3949 201.957 43.0009 202.128 42.6619C202.3 42.321 202.541 42.0559 202.849 41.8665C203.158 41.6752 203.521 41.5795 203.938 41.5795C204.206 41.5795 204.46 41.6231 204.699 41.7102C204.939 41.7955 205.152 41.928 205.335 42.108C205.521 42.2879 205.667 42.517 205.773 42.7955C205.879 43.072 205.932 43.4015 205.932 43.7841V44.0994H202.355V43.4062H204.946C204.944 43.2093 204.902 43.0341 204.818 42.8807C204.735 42.7254 204.618 42.6032 204.469 42.5142C204.321 42.4252 204.149 42.3807 203.952 42.3807C203.741 42.3807 203.557 42.4318 203.398 42.5341C203.239 42.6345 203.115 42.767 203.026 42.9318C202.938 43.0947 202.894 43.2737 202.892 43.4688V44.0739C202.892 44.3277 202.938 44.5455 203.031 44.7273C203.124 44.9072 203.254 45.0455 203.42 45.142C203.587 45.2367 203.782 45.2841 204.006 45.2841C204.155 45.2841 204.291 45.2633 204.412 45.2216C204.533 45.178 204.638 45.1146 204.727 45.0312C204.816 44.9479 204.884 44.8447 204.929 44.7216L205.889 44.8295C205.829 45.0833 205.713 45.3049 205.543 45.4943C205.374 45.6818 205.158 45.8277 204.895 45.9318C204.632 46.0341 204.33 46.0852 203.991 46.0852ZM208.786 46V41.6364H210.619C211.136 41.6364 211.544 41.7396 211.843 41.946C212.144 42.1525 212.295 42.4403 212.295 42.8097C212.295 43.054 212.21 43.2538 212.039 43.4091C211.871 43.5625 211.64 43.6657 211.349 43.7188C211.578 43.7377 211.779 43.7955 211.951 43.892C212.125 43.9886 212.262 44.1155 212.36 44.2727C212.459 44.4299 212.508 44.6108 212.508 44.8153C212.508 45.0559 212.444 45.2652 212.317 45.4432C212.192 45.6193 212.01 45.7566 211.769 45.8551C211.531 45.9517 211.241 46 210.9 46H208.786ZM209.749 45.1903H210.9C211.089 45.1903 211.238 45.1458 211.346 45.0568C211.454 44.9659 211.508 44.8428 211.508 44.6875C211.508 44.5076 211.454 44.3665 211.346 44.2642C211.238 44.16 211.089 44.108 210.9 44.108H209.749V45.1903ZM209.749 43.4432H210.638C210.779 43.4432 210.899 43.4233 210.999 43.3835C211.1 43.3419 211.176 43.2841 211.229 43.2102C211.282 43.1345 211.309 43.0445 211.309 42.9403C211.309 42.7907 211.247 42.6733 211.124 42.5881C211.003 42.5028 210.835 42.4602 210.619 42.4602H209.749V43.4432ZM213.357 47.6364V41.6364H214.368V42.358H214.428C214.481 42.2519 214.555 42.1392 214.652 42.0199C214.749 41.8987 214.879 41.7955 215.044 41.7102C215.209 41.6231 215.419 41.5795 215.675 41.5795C216.012 41.5795 216.316 41.6657 216.587 41.8381C216.859 42.0085 217.075 42.2614 217.234 42.5966C217.395 42.9299 217.476 43.339 217.476 43.8239C217.476 44.303 217.397 44.7102 217.24 45.0455C217.083 45.3807 216.869 45.6364 216.598 45.8125C216.327 45.9886 216.02 46.0767 215.678 46.0767C215.428 46.0767 215.22 46.035 215.055 45.9517C214.891 45.8684 214.758 45.768 214.658 45.6506C214.559 45.5312 214.482 45.4186 214.428 45.3125H214.385V47.6364H213.357ZM214.365 43.8182C214.365 44.1004 214.405 44.3475 214.484 44.5597C214.566 44.7718 214.682 44.9375 214.834 45.0568C214.987 45.1742 215.173 45.233 215.391 45.233C215.618 45.233 215.808 45.1723 215.962 45.0511C216.115 44.928 216.231 44.7604 216.308 44.5483C216.388 44.3343 216.428 44.0909 216.428 43.8182C216.428 43.5473 216.389 43.3068 216.311 43.0966C216.233 42.8864 216.118 42.7216 215.964 42.6023C215.811 42.483 215.62 42.4233 215.391 42.4233C215.171 42.4233 214.984 42.4811 214.831 42.5966C214.678 42.7121 214.561 42.8741 214.482 43.0824C214.404 43.2907 214.365 43.536 214.365 43.8182ZM220.288 46.0852C219.851 46.0852 219.473 45.9943 219.155 45.8125C218.839 45.6288 218.595 45.3693 218.425 45.0341C218.254 44.697 218.169 44.3002 218.169 43.8438C218.169 43.3949 218.254 43.0009 218.425 42.6619C218.597 42.321 218.838 42.0559 219.146 41.8665C219.455 41.6752 219.818 41.5795 220.234 41.5795C220.503 41.5795 220.757 41.6231 220.996 41.7102C221.236 41.7955 221.448 41.928 221.632 42.108C221.818 42.2879 221.964 42.517 222.07 42.7955C222.176 43.072 222.229 43.4015 222.229 43.7841V44.0994H218.652V43.4062H221.243C221.241 43.2093 221.198 43.0341 221.115 42.8807C221.032 42.7254 220.915 42.6032 220.766 42.5142C220.618 42.4252 220.446 42.3807 220.249 42.3807C220.038 42.3807 219.854 42.4318 219.695 42.5341C219.536 42.6345 219.411 42.767 219.322 42.9318C219.235 43.0947 219.191 43.2737 219.189 43.4688V44.0739C219.189 44.3277 219.235 44.5455 219.328 44.7273C219.421 44.9072 219.551 45.0455 219.717 45.142C219.884 45.2367 220.079 45.2841 220.303 45.2841C220.452 45.2841 220.588 45.2633 220.709 45.2216C220.83 45.178 220.935 45.1146 221.024 45.0312C221.113 44.9479 221.18 44.8447 221.226 44.7216L222.186 44.8295C222.125 45.0833 222.01 45.3049 221.839 45.4943C221.671 45.6818 221.455 45.8277 221.192 45.9318C220.929 46.0341 220.627 46.0852 220.288 46.0852ZM225.61 44.804L226.906 41.6364H227.735L225.971 46H225.252L223.528 41.6364H224.349L225.61 44.804ZM224.09 41.6364V46H223.099V41.6364H224.09ZM227.173 46V41.6364H228.156V46H227.173ZM231.772 46V42.4716H230.84C230.603 42.4716 230.422 42.5265 230.295 42.6364C230.168 42.7462 230.105 42.8826 230.107 43.0455C230.105 43.2083 230.165 43.3428 230.286 43.4489C230.407 43.5549 230.581 43.608 230.806 43.608H232.096V44.358H230.806C230.458 44.358 230.156 44.303 229.903 44.1932C229.649 44.0833 229.454 43.928 229.317 43.7273C229.181 43.5265 229.113 43.2917 229.113 43.0227C229.113 42.7424 229.182 42.4991 229.32 42.2926C229.46 42.0843 229.659 41.9233 229.917 41.8097C230.176 41.6941 230.484 41.6364 230.84 41.6364H232.735V46H231.772ZM228.954 46L230.173 43.7614H231.187L229.965 46H228.954Z" fill="white"/>
<path d="M240 43.1364L241.562 44.5L245 41.5" stroke="white"/>
<defs>
<filter id="filter0_d_400_6" x="0" y="0" width="290" height="85" filterUnits="userSpaceOnUse" color-interpolation-filters="sRGB">
<feFlood flood-opacity="0" result="BackgroundImageFix"/>
<feColorMatrix in="SourceAlpha" type="matrix" values="0 0 0 0 0 0 0 0 0 0 0 0 0 0 0 0 0 0 127 0" result="hardAlpha"/>
<feOffset/>
<feGaussianBlur stdDeviation="5"/>
<feComposite in2="hardAlpha" operator="out"/>
<feColorMatrix type="matrix" values="0 0 0 0 0 0 0 0 0 0 0 0 0 0 0 0 0 0 0.05 0"/>
<feBlend mode="normal" in2="BackgroundImageFix" result="effect1_dropShadow_400_6"/>
<feBlend mode="normal" in="SourceGraphic" in2="effect1_dropShadow_400_6" result="shape"/>
</filter>
</defs>
</svg>
