<svg width="19" height="22" viewBox="0 0 19 22" fill="none" xmlns="http://www.w3.org/2000/svg">
<rect width="18.3333" height="22" rx="3" fill="#AAAAAA"/>
<path d="M8.09282 13.7374C7.96776 13.7374 7.86637 13.636 7.86637 13.5109C7.87082 12.7339 7.93987 12.1145 8.0735 11.6527C8.21158 11.1909 8.41203 10.818 8.67483 10.5338C8.93764 10.2496 9.2539 9.99207 9.62361 9.76118C9.89978 9.58357 10.147 9.3993 10.3653 9.20837C10.5835 9.01744 10.7572 8.80653 10.8864 8.57564C11.0156 8.34031 11.0802 8.07834 11.0802 7.78972C11.0802 7.48335 11.0067 7.21472 10.8597 6.98383C10.7127 6.75293 10.5145 6.57533 10.265 6.451C10.02 6.32667 9.74833 6.26451 9.44989 6.26451C9.16036 6.26451 8.88641 6.32889 8.62806 6.45766C8.36971 6.58199 8.15813 6.76847 7.99332 7.01713C7.69254 7.46281 7.30036 7.92959 6.76268 7.92959H6.40511C5.63486 7.92959 4.97959 7.27739 5.22945 6.54878C5.33242 6.24854 5.46974 5.97617 5.64143 5.73168C6.04677 5.15002 6.58352 4.7171 7.25167 4.43292C7.91982 4.14431 8.65702 4 9.46325 4C10.3497 4 11.1336 4.14653 11.8151 4.43958C12.4967 4.7282 13.0312 5.1478 13.4187 5.69838C13.8062 6.24897 14 6.91278 14 7.68982C14 8.20932 13.9131 8.67111 13.7394 9.07517C13.5702 9.47479 13.3318 9.83 13.0245 10.1408C12.7171 10.4472 12.3541 10.7247 11.9354 10.9734C11.5835 11.182 11.294 11.3996 11.0668 11.6261C10.8441 11.8525 10.6771 12.1145 10.5657 12.412C10.4588 12.7095 10.4031 13.0758 10.3987 13.5109C10.3987 13.636 10.2973 13.7374 10.1722 13.7374H8.09282ZM9.18931 18C8.74388 18 8.36303 17.8446 8.04677 17.5338C7.73497 17.2185 7.58129 16.8411 7.58575 16.4015C7.58129 15.9664 7.73497 15.5934 8.04677 15.2826C8.36303 14.9718 8.74388 14.8164 9.18931 14.8164C9.61247 14.8164 9.98441 14.9718 10.3051 15.2826C10.6258 15.5934 10.7884 15.9664 10.7929 16.4015C10.7884 16.6946 10.7105 16.9632 10.559 17.2074C10.412 17.4472 10.2183 17.6403 9.97773 17.7869C9.73719 17.929 9.47439 18 9.18931 18Z" fill="white"/>
</svg>
